<mxfile host="app.diagrams.net" modified="2024-06-07T10:04:35.429Z" agent="Mozilla/5.0 (Windows NT 10.0; Win64; x64) AppleWebKit/537.36 (KHTML, like Gecko) Chrome/125.0.0.0 Safari/537.36" version="24.5.1" etag="MIvJytQt0Ggk7noSrzPI" type="device">
  <diagram id="yDYKk67rofHww7M90Gqk" name="Page-1">
    <mxGraphModel dx="1338" dy="908" grid="1" gridSize="10" guides="1" tooltips="1" connect="1" arrows="1" fold="1" page="1" pageScale="1" pageWidth="850" pageHeight="1100" math="0" shadow="0">
      <root>
        <mxCell id="0" />
        <mxCell id="1" parent="0" />
        <mxCell id="PRN1V0BCnqNuPi7CKkLN-1" value="&lt;b&gt;JFrame&lt;/b&gt;" style="rounded=0;whiteSpace=wrap;html=1;align=left;" vertex="1" parent="1">
          <mxGeometry x="40" y="40" width="320" height="20" as="geometry" />
        </mxCell>
        <mxCell id="PRN1V0BCnqNuPi7CKkLN-2" value="" style="rounded=0;whiteSpace=wrap;html=1;" vertex="1" parent="1">
          <mxGeometry x="40" y="60" width="320" height="170" as="geometry" />
        </mxCell>
        <mxCell id="PRN1V0BCnqNuPi7CKkLN-3" value="&lt;b&gt;Controller&lt;/b&gt;&lt;div&gt;&lt;br&gt;&lt;/div&gt;&lt;div&gt;JPanel : dessiner la surface&lt;/div&gt;&lt;div&gt;MouseMotionListener : déplacer la caméra&lt;/div&gt;" style="rounded=0;whiteSpace=wrap;html=1;" vertex="1" parent="1">
          <mxGeometry x="50" y="70" width="300" height="150" as="geometry" />
        </mxCell>
        <mxCell id="PRN1V0BCnqNuPi7CKkLN-4" value="&lt;b&gt;DISPLAY&lt;/b&gt;&lt;div&gt;1 - Nouvelle surface (BufferedImage)&lt;div&gt;2 - Pour tous les GNPObjects :&lt;/div&gt;&lt;div&gt;&lt;span style=&quot;white-space: pre;&quot;&gt;&#x9;&lt;/span&gt;- updateMesh&lt;br&gt;&lt;/div&gt;&lt;div&gt;&lt;span style=&quot;white-space: pre;&quot;&gt;&#x9;&lt;/span&gt;- le dessiner sur la surface&lt;br&gt;&lt;/div&gt;&lt;div&gt;3 - Controller.updateSurface()&lt;/div&gt;&lt;div&gt;4 - Controller.repaint()&lt;/div&gt;&lt;/div&gt;" style="text;html=1;align=left;verticalAlign=top;whiteSpace=wrap;rounded=0;" vertex="1" parent="1">
          <mxGeometry x="410" y="50" width="230" height="190" as="geometry" />
        </mxCell>
        <mxCell id="PRN1V0BCnqNuPi7CKkLN-5" value="" style="ellipse;whiteSpace=wrap;html=1;aspect=fixed;" vertex="1" parent="1">
          <mxGeometry x="381" y="54" width="20" height="20" as="geometry" />
        </mxCell>
        <mxCell id="PRN1V0BCnqNuPi7CKkLN-6" value="" style="triangle;whiteSpace=wrap;html=1;" vertex="1" parent="1">
          <mxGeometry x="388" y="51" width="10" height="10" as="geometry" />
        </mxCell>
      </root>
    </mxGraphModel>
  </diagram>
</mxfile>
